<?xml version="1.0" encoding="UTF-8"?>
<svg version="1.1" xmlns="http://www.w3.org/2000/svg" width="128" height="128">
<path d="M0 0 C4.46629768 5.95506358 4.3171502 11.59150003 4.0625 18.75 C4.53300781 18.40066406 5.00351563 18.05132813 5.48828125 17.69140625 C6.11089844 17.23636719 6.73351562 16.78132813 7.375 16.3125 C7.98988281 15.86003906 8.60476562 15.40757813 9.23828125 14.94140625 C13.20864181 12.34834421 17.46993442 12.14327574 22.0625 12.75 C25.65706246 14.05970197 28.36937806 16.01216052 31 18.8125 C32.70151272 23.51668224 33.03136913 27.8300688 32.0625 32.75 C29.61430846 37.00176121 26.6062124 39.90797506 22.3125 42.25 C20.0625 42.75 20.0625 42.75 17.0625 42.75 C17.0625 43.41 17.0625 44.07 17.0625 44.75 C17.8875 44.770625 18.7125 44.79125 19.5625 44.8125 C24.50075604 46.13524715 27.5499893 49.12012618 31.0625 52.75 C33.02640569 56.67781139 32.398391 61.45805942 32.0625 65.75 C30.29565916 70.36341775 27.44794865 72.55727567 23.0625 74.75 C15.7933076 75.92245039 11.07917015 73.76111344 5.0625 69.75 C5.0625 69.09 5.0625 68.43 5.0625 67.75 C4.4025 67.75 3.7425 67.75 3.0625 67.75 C3.16949219 68.46285156 3.27648437 69.17570312 3.38671875 69.91015625 C4.17846766 76.23563413 4.33908354 80.21370368 1.0625 85.75 C-1.55975005 88.9841084 -3.87676675 90.75737632 -7.9375 91.75 C-13.15484955 92.01528896 -16.86890009 91.24038511 -20.9375 87.875 C-23.24822841 85.74613447 -23.91283716 84.82398853 -24.9375 81.75 C-25.00720052 79.35509014 -25.02198003 76.95832309 -25 74.5625 C-24.99097656 73.29019531 -24.98195313 72.01789063 -24.97265625 70.70703125 C-24.96105469 69.73121094 -24.94945313 68.75539063 -24.9375 67.75 C-25.49179687 68.17152344 -26.04609375 68.59304687 -26.6171875 69.02734375 C-27.34164062 69.57519531 -28.06609375 70.12304688 -28.8125 70.6875 C-29.53179687 71.23277344 -30.25109375 71.77804688 -30.9921875 72.33984375 C-35.13958008 75.34628697 -38.93950654 75.34841068 -43.9375 74.75 C-48.75456073 72.3869136 -51.5744136 69.56706073 -53.9375 64.75 C-54.76204452 60.06355821 -54.41400352 56.72133409 -52.3125 52.4375 C-49.00194743 48.6913484 -45.68216151 46.33155384 -40.9375 44.75 C-40.6075 44.09 -40.2775 43.43 -39.9375 42.75 C-40.80375 42.523125 -41.67 42.29625 -42.5625 42.0625 C-47.00404475 40.3352326 -50.54288784 38.04589212 -53.0859375 33.859375 C-54.56675543 30.19129389 -54.49693389 26.63233639 -53.9375 22.75 C-51.44336109 18.10574134 -48.99624933 14.43624978 -43.9375 12.75 C-37.57392252 12.21071377 -33.28844292 13.20247909 -27.9375 16.75 C-26.91005593 17.72178119 -25.90128087 18.71504762 -24.9375 19.75 C-24.97230469 18.79738281 -25.00710937 17.84476563 -25.04296875 16.86328125 C-25.07003906 15.60902344 -25.09710938 14.35476562 -25.125 13.0625 C-25.15980469 11.82113281 -25.19460937 10.57976563 -25.23046875 9.30078125 C-24.81955458 4.32050152 -23.13024231 1.8799664 -19.5625 -1.5 C-13.18958759 -5.74860827 -5.93674542 -4.54729437 0 0 Z M2.0625 65.75 C3.0625 67.75 3.0625 67.75 3.0625 67.75 Z " fill="#E936CC" transform="translate(75.9375,13.25)"/>
<path d="M0 0 C0.99 1.485 0.99 1.485 2 3 C2.99 3.33 3.98 3.66 5 4 C5.763125 4.86625 6.52625 5.7325 7.3125 6.625 C9.77106266 9.28678356 9.77106266 9.28678356 12.9375 9.1875 C16.44637738 7.82691489 18.10550279 6.19805322 20.5078125 3.375 C23.11018777 0.97699975 25.94046502 1.006615 29.375 0.625 C33.07311252 1.00756336 35.04330696 1.74975251 37.7734375 4.3046875 C40.07146599 7.48094344 40.77176443 11.13382774 41 15 C40.53515625 17.27734375 40.53515625 17.27734375 40 19 C38.68 19 37.36 19 36 19 C36.495 20.98 36.495 20.98 37 23 C37.99 23 38.98 23 40 23 C37.16335529 30.57770348 32.99706275 36.61644117 26.66796875 41.66015625 C23.7093989 44.03671236 20.96553374 46.71262168 18.6875 49.75 C15.7789187 51.90450467 12.51396006 52.23823458 9 52 C5.5 50.1875 5.5 50.1875 3 48 C3 47.34 3 46.68 3 46 C2.34 46 1.68 46 1 46 C-5.05064471 40.46798198 -10.87031497 34.10305826 -15 27 C-15 26.01 -15 25.02 -15 24 C-14.01 23.67 -13.02 23.34 -12 23 C-12 22.01 -12 21.02 -12 20 C-12.804375 20.020625 -13.60875 20.04125 -14.4375 20.0625 C-17 20 -17 20 -18 19 C-19.01684777 13.97659819 -19.91368897 8.79581465 -17.5625 4.0625 C-12.17122183 -2.38073488 -7.36384374 -4.56558312 0 0 Z " fill="#D50AD6" transform="translate(52,35)"/>
<path d="M0 0 C4.85916829 6.47889105 4.07288647 12.07652438 3.0625 19.75 C2.4025 19.42 1.7425 19.09 1.0625 18.75 C-0.82211202 19.40936914 -0.82211202 19.40936914 -2.8125 20.5 C-3.52664062 20.86996094 -4.24078125 21.23992188 -4.9765625 21.62109375 C-7.06114495 22.7536777 -7.06114495 22.7536777 -9.1875 24.5625 C-10.9375 25.75 -10.9375 25.75 -12.875 25.6875 C-15.60407487 24.44701142 -17.6750278 22.69823995 -19.9375 20.75 C-21.9175 21.74 -21.9175 21.74 -23.9375 22.75 C-24.78187321 19.04565303 -25.12936639 15.54806243 -25.1875 11.75 C-25.21328125 10.739375 -25.2390625 9.72875 -25.265625 8.6875 C-24.75789213 4.14208189 -22.82840022 1.59401074 -19.5625 -1.5 C-13.18958759 -5.74860827 -5.93674542 -4.54729437 0 0 Z " fill="#FE65C4" transform="translate(75.9375,13.25)"/>
<path d="M0 0 C5.50930954 1.34373403 9.08621081 4.03230187 13 8 C14.96390569 11.92781139 14.335891 16.70805942 14 21 C12.23315916 25.61341775 9.38544865 27.80727567 5 30 C-2.2691924 31.17245039 -6.98332985 29.01111344 -13 25 C-13 24.34 -13 23.68 -13 23 C-13.66 23 -14.32 23 -15 23 C-15 22.34 -15 21.68 -15 21 C-14.071875 20.87625 -14.071875 20.87625 -13.125 20.75 C-10.84957521 20.20076457 -10.84957521 20.20076457 -9.875 18.125 C-9.58625 17.42375 -9.2975 16.7225 -9 16 C-8.34 15.01 -7.68 14.02 -7 13 C-6.34 13 -5.68 13 -5 13 C-4.731875 12.319375 -4.46375 11.63875 -4.1875 10.9375 C-3.27962959 8.69171529 -2.34108225 6.47061559 -1.375 4.25 C0.06494 1.43465522 0.06494 1.43465522 0 0 Z " fill="#FE65C4" transform="translate(94,58)"/>
<path d="M0 0 C2.53052428 2.29375008 4.00126157 4.6339029 5.625 7.625 C8.93112319 13.30218124 13.19037922 17.57514888 18 22 C11.7802741 28.56526623 11.7802741 28.56526623 6.8515625 29.3359375 C1.38623105 29.43182051 -1.74988733 28.75591353 -6 25 C-9.67213845 20.84468544 -10.65535778 17.58126268 -10.3828125 12.17578125 C-9.6586585 8.05992638 -7.65678349 5.29714025 -4.3984375 2.74609375 C-2.96921457 1.77408668 -1.48805265 0.87930384 0 0 Z " fill="#FE64C4" transform="translate(32,59)"/>
<path d="M0 0 C2.93794488 4.40691731 3.05851323 8.77037976 3 14 C1.99406108 18.58540493 -0.32786564 22.0838933 -4 25 C-7.87028989 27.32217393 -11.35544746 27.27692861 -15.7109375 26.6796875 C-19.60992391 25.52196799 -22.41626572 23.09125352 -25 20 C-26.09506492 16.71480525 -26.09960608 14.26336585 -26.0625 10.8125 C-26.05347656 9.72582031 -26.04445312 8.63914062 -26.03515625 7.51953125 C-26.02355469 6.68808594 -26.01195312 5.85664062 -26 5 C-25.01 5.33 -24.02 5.66 -23 6 C-23 6.66 -23 7.32 -23 8 C-22.21625 8.309375 -21.4325 8.61875 -20.625 8.9375 C-18 10 -18 10 -16 11 C-11.07525061 11.42310991 -11.07525061 11.42310991 -6.6875 9.5 C-6.130625 9.005 -5.57375 8.51 -5 8 C-4.34 8 -3.68 8 -3 8 C-2.87625 7.4225 -2.7525 6.845 -2.625 6.25 C-1.99351176 3.97664233 -1.11141809 2.0746471 0 0 Z " fill="#FE65C4" transform="translate(77,78)"/>
<path d="M0 0 C3.97824426 2.09470186 6.49872573 4.05507076 8.02734375 8.28125 C8.85111445 13.17768145 9.13771944 17.39213083 6.5625 21.7734375 C4.81406297 23.85086163 3.20310351 25.65525395 1.02734375 27.28125 C0.03734375 27.28125 -0.95265625 27.28125 -1.97265625 27.28125 C-1.91078125 26.146875 -1.84890625 25.0125 -1.78515625 23.84375 C-1.81404693 18.41230275 -2.73820942 12.92662958 -6.33203125 8.671875 C-9.24502835 6.11924868 -12.30468038 4.46794807 -15.97265625 3.28125 C-11.76296043 -1.32936923 -5.80934595 -2.11667258 0 0 Z " fill="#FE64C4" transform="translate(99.97265625,26.71875)"/>
<path d="M0 0 C1.2375 0.7425 1.2375 0.7425 2.5 1.5 C1.51 1.83 0.52 2.16 -0.5 2.5 C-6.81955892 5.81267202 -9.93809537 8.71854668 -12.6875 15.375 C-13.59313359 18.85820613 -13.64337004 21.91574907 -13.5 25.5 C-17.76272329 23.97759883 -19.48031034 21.46724754 -21.5 17.5 C-22.35751476 12.70649252 -22.0009927 9.43288296 -19.6875 5.125 C-14.13825364 -1.53409563 -8.30730132 -3.56027199 0 0 Z " fill="#FD63C4" transform="translate(43.5,27.5)"/>
<path d="M0 0 C1.32 0 2.64 0 4 0 C1.16335529 7.57770348 -3.00293725 13.61644117 -9.33203125 18.66015625 C-12.2906011 21.03671236 -15.03446626 23.71262168 -17.3125 26.75 C-20.2210813 28.90450467 -23.48603994 29.23823458 -27 29 C-30.5 27.1875 -30.5 27.1875 -33 25 C-33 24.34 -33 23.68 -33 23 C-33.66 23 -34.32 23 -35 23 C-41.0060647 17.50874085 -47.02128801 11.12852564 -51 4 C-50.67 3.01 -50.34 2.02 -50 1 C-48.84962529 2.6009131 -47.70485184 4.20585225 -46.5625 5.8125 C-45.60537109 7.15248047 -45.60537109 7.15248047 -44.62890625 8.51953125 C-43 11 -43 11 -42 14 C-41.34 14 -40.68 14 -40 14 C-39.608125 14.598125 -39.21625 15.19625 -38.8125 15.8125 C-36.34262021 18.7933894 -33.54850346 19.53165374 -30 21 C-27.0625 23.1875 -27.0625 23.1875 -25 25 C-13.95774876 21.27988327 -5.31127182 10.00970459 0 0 Z " fill="#D90FD3" transform="translate(88,58)"/>
<path d="M0 0 C0.33 0.99 0.66 1.98 1 3 C1.59167969 3.01417969 2.18335937 3.02835938 2.79296875 3.04296875 C7.10976902 3.30352603 9.42315934 3.5581646 12.9375 6.25 C16.42742212 10.90322949 17.27007115 14.19347031 17 20 C16.34 19.67 15.68 19.34 15 19 C14.54296875 17.07421875 14.54296875 17.07421875 14.1875 14.6875 C13.49483405 11.34139066 13.09667322 10.11324577 10.8125 7.4375 C6.49565492 5.23111252 2.99603045 5.47723012 -1.625 6.6875 C-4.20420103 7.95741802 -4.20420103 7.95741802 -6.4375 10.5625 C-9.43692783 13.41561428 -10.8777041 14.08588116 -15 14 C-17.875 12.1875 -17.875 12.1875 -20 10 C-20 9.34 -20 8.68 -20 8 C-21.32 7.67 -22.64 7.34 -24 7 C-24 6.01 -24 5.02 -24 4 C-23.01 3.34 -22.02 2.68 -21 2 C-20.113125 2.845625 -19.22625 3.69125 -18.3125 4.5625 C-15.78271123 6.6607017 -15.78271123 6.6607017 -12.5625 7.125 C-9.58949235 5.81977713 -7.20415693 4.1453167 -4.6484375 2.15625 C-3 1 -3 1 0 0 Z " fill="#E020D0" transform="translate(77,31)"/>
<path d="M0 0 C0.99 1.485 0.99 1.485 2 3 C1.13375 2.773125 0.2675 2.54625 -0.625 2.3125 C-4.70409394 1.93480612 -6.49726132 3.00980757 -10 5 C-10.66 5 -11.32 5 -12 5 C-15.45001439 10.75002399 -15.17682137 16.5928614 -14 23 C-12.35 23 -10.7 23 -9 23 C-8.67 24.32 -8.34 25.64 -8 27 C-9.32 27.33 -10.64 27.66 -12 28 C-12.33 27.01 -12.66 26.02 -13 25 C-16.00847418 23.77479736 -16.00847418 23.77479736 -19 23 C-20.54287378 16.05706798 -19.56854925 11.18903616 -16 5 C-14.11194949 2.84007021 -12.43271203 1.62180802 -10 0 C-9.01 -0.7115625 -9.01 -0.7115625 -8 -1.4375 C-4.87072038 -2.31760989 -2.88663087 -1.31780974 0 0 Z " fill="#EE40CB" transform="translate(49,31)"/>
<path d="M0 0 C0.66 0.66 1.32 1.32 2 2 C1.625 4.125 1.625 4.125 1 6 C-0.32 6 -1.64 6 -3 6 C-5.38962885 7.4514471 -7.55099572 9.10100876 -9.78125 10.78515625 C-12 12 -12 12 -14.109375 11.8125 C-16.79429039 10.65865206 -18.79820386 8.89599112 -21 7 C-22.98 7.99 -22.98 7.99 -25 9 C-25.79953138 5.71303767 -26.09658936 4.28976808 -25 1 C-22.01752749 1.45884193 -20.55313437 2.30722012 -18 4.0625 C-15.03518394 6.36168362 -15.03518394 6.36168362 -11 6 C-8.91845497 4.96785959 -8.91845497 4.96785959 -6.9375 3.5625 C-4.5348522 1.94382557 -2.78312875 0.92770958 0 0 Z " fill="#FA5BC6" transform="translate(77,27)"/>
<path d="M0 0 C2 3 2 3 1.87109375 5.453125 C0.81792026 8.53235869 -0.43453748 9.70417892 -2.9375 11.75 C-3.64777344 12.34296875 -4.35804687 12.9359375 -5.08984375 13.546875 C-8.78416537 16.35727917 -11.37069581 16.37945116 -16 16 C-19.44536055 14.54021872 -22.34273928 12.65726072 -25 10 C-25 8.68 -25 7.36 -25 6 C-24.34 6 -23.68 6 -23 6 C-23 6.66 -23 7.32 -23 8 C-22.21625 8.309375 -21.4325 8.61875 -20.625 8.9375 C-18 10 -18 10 -16 11 C-11.07525061 11.42310991 -11.07525061 11.42310991 -6.6875 9.5 C-6.130625 9.005 -5.57375 8.51 -5 8 C-4.34 8 -3.68 8 -3 8 C-2.87625 7.4225 -2.7525 6.845 -2.625 6.25 C-1.99351176 3.97664233 -1.11141809 2.0746471 0 0 Z " fill="#FA5AC6" transform="translate(77,78)"/>
<path d="M0 0 C5.40919287 0 8.65334266 1.52139769 12.484375 5.13671875 C15.7269575 9.1230895 17.04996787 13.46316983 16.94921875 18.578125 C16.72251702 20.73009959 16.37219004 22.86836615 16 25 C14.68 25.33 13.36 25.66 12 26 C12.10699219 25.443125 12.21398437 24.88625 12.32421875 24.3125 C13.2446453 18.45344067 12.87472786 14.23865696 10 9 C7.16981485 5.29148153 4.43321557 4.25286527 0 3 C-0.66 2.67 -1.32 2.34 -2 2 C-1.34 1.34 -0.68 0.68 0 0 Z " fill="#F248C9" transform="translate(82,30)"/>
<path d="M0 0 C1.32 0.33 2.64 0.66 4 1 C2.72864961 6.66002319 0.70608178 10.28096029 -2.9375 14.75 C-3.38029297 15.31332031 -3.82308594 15.87664062 -4.27929688 16.45703125 C-8.86263391 22.23572444 -8.86263391 22.23572444 -11 24 C-13.1875 23.6875 -13.1875 23.6875 -15 23 C-15 22.34 -15 21.68 -15 21 C-14.071875 20.87625 -14.071875 20.87625 -13.125 20.75 C-10.84957521 20.20076457 -10.84957521 20.20076457 -9.875 18.125 C-9.58625 17.42375 -9.2975 16.7225 -9 16 C-8.34 15.01 -7.68 14.02 -7 13 C-6.34 13 -5.68 13 -5 13 C-4.731875 12.319375 -4.46375 11.63875 -4.1875 10.9375 C-3.27962959 8.69171529 -2.34108225 6.47061559 -1.375 4.25 C0.06494 1.43465522 0.06494 1.43465522 0 0 Z " fill="#F855C7" transform="translate(94,58)"/>
<path d="M0 0 C2.30004954 2.20335076 4.26558323 4.52367168 6.1875 7.0625 C6.71730469 7.75472656 7.24710938 8.44695312 7.79296875 9.16015625 C9 11 9 11 9 13 C9.66 13 10.32 13 11 13 C11.474375 13.639375 11.94875 14.27875 12.4375 14.9375 C13.9091365 17.28372963 13.9091365 17.28372963 17 18 C18.69088222 19.97956942 20.35830472 21.97945196 22 24 C24.85324437 25.42662219 26.83454549 25.31033868 30 25 C32.73219193 23.08140833 32.73219193 23.08140833 35 21 C35.66 21 36.32 21 37 21 C37 20.34 37 19.68 37 19 C37.66 19 38.32 19 39 19 C37.49135525 22.84018663 35.47945186 24.80643252 32 27 C29.27618266 27.88173056 26.85758154 28.25066505 24 28 C20.5 26.1875 20.5 26.1875 18 24 C18 23.34 18 22.68 18 22 C17.34 22 16.68 22 16 22 C9.94935529 16.46798198 4.12968503 10.10305826 0 3 C0 2.01 0 1.02 0 0 Z " fill="#E020D0" transform="translate(37,59)"/>
<path d="M0 0 C0.66 1.32 1.32 2.64 2 4 C1.13375 4.226875 0.2675 4.45375 -0.625 4.6875 C-4.16500065 5.84337115 -4.16500065 5.84337115 -7 8.625 C-10 11 -10 11 -12.9375 11.6875 C-17.33559083 10.70017349 -19.85885439 8.12255895 -23 5 C-22.67 4.01 -22.34 3.02 -22 2 C-19.37098712 3.52206009 -17.15634036 4.84365964 -15 7 C-10.63719681 6.87534848 -7.96103561 4.73438066 -4.6484375 2.15625 C-3 1 -3 1 0 0 Z " fill="#EC3BCB" transform="translate(77,31)"/>
<path d="M0 0 C-0.33 0.66 -0.66 1.32 -1 2 C-3.2408573 2.60262099 -5.48570975 2.95607183 -7.7734375 3.33984375 C-10.37616962 4.11153099 -11.37444226 4.84082452 -13 7 C-14.56873517 11.47970363 -15.30587489 16.25893926 -15 21 C-15.66 20.67 -16.32 20.34 -17 20 C-18.21583454 15.05103968 -18.87839239 9.74529563 -16.5625 5.0625 C-11.85013127 -0.56935532 -7.06394446 -3.53197223 0 0 Z " fill="#E226CF" transform="translate(51,34)"/>
<path d="M0 0 C3.44732287 0.94017896 5.57834093 1.55278584 8.0625 4.1875 C9.85448557 6.27753258 9.85448557 6.27753258 12.4375 6 C15.13512718 5.09976197 15.13512718 5.09976197 17.4375 3 C20.3607084 0.71847149 22.35586806 0.33898902 26 0 C24.73915006 2.52169988 23.71218827 2.77117833 21.1875 3.9375 C18.74186209 5.09710728 16.87172027 6.10333645 14.75 7.8125 C13 9 13 9 11.0625 8.9375 C8.33342513 7.69701142 6.2624722 5.94823995 4 4 C2.02 4.99 2.02 4.99 0 6 C-1.24546405 3.50907189 -0.7767578 2.58919267 0 0 Z " fill="#F44EC8" transform="translate(52,30)"/>
<path d="M0 0 C0.33 0 0.66 0 1 0 C1.5625 2.5625 1.5625 2.5625 1 6 C-2.80066517 9.77763083 -7.30790298 13.69407988 -12.75 14.3125 C-16.80901885 13.92220973 -18.83301684 12.50412622 -22 10 C-22.33 9.34 -22.66 8.68 -23 8 C-18.25 9.875 -18.25 9.875 -16 11 C-11.07525061 11.42310991 -11.07525061 11.42310991 -6.6875 9.5 C-6.130625 9.005 -5.57375 8.51 -5 8 C-4.34 8 -3.68 8 -3 8 C-2.87625 7.4225 -2.7525 6.845 -2.625 6.25 C-1.99351176 3.97664233 -1.11141809 2.0746471 0 0 Z " fill="#F44CC8" transform="translate(77,78)"/>
<path d="M0 0 C0.66 0.66 1.32 1.32 2 2 C1.20335937 2.32871094 1.20335937 2.32871094 0.390625 2.6640625 C-4.65749912 4.93019121 -7.36115182 6.93341149 -10 12 C-10.93543548 14.97862351 -11.10828868 17.63636942 -11.0625 20.75 C-11.05347656 21.54921875 -11.04445313 22.3484375 -11.03515625 23.171875 C-11.02355469 23.77515625 -11.01195312 24.3784375 -11 25 C-11.66 25 -12.32 25 -13 25 C-14.54287378 18.05706798 -13.56854925 13.18903616 -10 7 C-7.23571938 3.83766298 -3.866993 1.6360355 0 0 Z " fill="#F44EC8" transform="translate(43,29)"/>
<path d="M0 0 C2.54672834 2.30773917 4.0417199 4.68359763 5.6875 7.6875 C8.75296372 12.9458899 12.51499063 16.92478844 17 21 C16.34 21.66 15.68 22.32 15 23 C14.67 22.01 14.34 21.02 14 20 C13.01 19.67 12.02 19.34 11 19 C9.38099647 17.09240404 7.8998466 15.208067 6.4375 13.1875 C5.65246094 12.12917969 4.86742187 11.07085937 4.05859375 9.98046875 C0 4.10436433 0 4.10436433 0 0 Z " fill="#F54EC8" transform="translate(32,59)"/>
<path d="M0 0 C0.99 0 1.98 0 3 0 C-0.15729217 8.43426875 -4.93909656 14.49249531 -12 20 C-12.33 19.34 -12.66 18.68 -13 18 C-11.9790625 17.319375 -11.9790625 17.319375 -10.9375 16.625 C-6.10956119 12.3106717 -1.15183732 6.54728584 0 0 Z " fill="#E020D0" transform="translate(89,58)"/>
<path d="M0 0 C1.2065625 0.0309375 1.2065625 0.0309375 2.4375 0.0625 C2.4375 1.7125 2.4375 3.3625 2.4375 5.0625 C0.7875 5.0625 -0.8625 5.0625 -2.5625 5.0625 C-3.125 3.125 -3.125 3.125 -3.5625 1.0625 C-2.5625 0.0625 -2.5625 0.0625 0 0 Z " fill="#EB96EC" transform="translate(52.5625,53.9375)"/>
<path d="M0 0 C0.86625 0.4640625 0.86625 0.4640625 1.75 0.9375 C5.27305033 2.60116266 6.95224093 3.35719059 10.75 2.0625 C11.4925 1.711875 12.235 1.36125 13 1 C12 4 12 4 10 5 C7.125 5.3125 7.125 5.3125 4 5 C1.625 3.0625 1.625 3.0625 0 1 C0 0.67 0 0.34 0 0 Z " fill="#E730CE" transform="translate(57,37)"/>
<path d="M0 0 C1.32 0.33 2.64 0.66 4 1 C3.67 2.32 3.34 3.64 3 5 C2.01 5 1.02 5 0 5 C0 3.35 0 1.7 0 0 Z " fill="#ED9EEE" transform="translate(37,54)"/>
</svg>
